<svg width="28" height="27" viewBox="0 0 28 27" xmlns="http://www.w3.org/2000/svg">
<path d="M14.1893 11.2352C15.2307 11.2352 16.0407 10.3783 16.0215 9.44519C16.0407 8.51208 15.25 7.63611 14.2086 7.63611C13.2057 7.63611 12.3765 8.43591 12.3765 9.42615C12.3765 10.4164 13.1865 11.2352 14.1893 11.2352Z"/>
<path d="M14.0351 0.00012207C6.59086 0.00012207 0.535156 5.97961 0.535156 13.3302C0.535156 20.6998 6.59086 26.6603 14.0351 26.6603C21.4987 26.6603 27.5351 20.6808 27.5351 13.3302C27.5544 5.97961 21.4987 0.00012207 14.0351 0.00012207ZM14.228 5.04651C16.658 5.04651 18.6637 7.02698 18.6444 9.44543C18.6444 11.8829 16.6194 13.8444 14.1508 13.8063C11.7209 13.7682 9.773 11.8068 9.773 9.42639C9.773 7.00793 11.7594 5.04651 14.228 5.04651ZM19.1844 15.3297C19.1844 15.3678 19.1651 15.3868 19.1651 15.4249C19.1073 15.8058 18.9144 16.1105 18.5866 16.3199C18.3744 16.4532 18.143 16.5865 17.9116 16.7008C17.333 16.9864 16.7158 17.215 16.0794 17.3673C16.0023 17.3863 16.0023 17.3863 16.0601 17.4435C16.4073 17.7863 16.7737 18.1481 17.1208 18.4908C17.5644 18.9288 18.0273 19.3859 18.4708 19.8238C19.1073 20.4523 18.9337 21.4996 18.1237 21.8805C17.9887 21.9567 17.8344 21.9757 17.6801 22.0138C17.603 22.0138 17.5066 22.0138 17.4294 22.0138C17.4101 22.0138 17.3908 22.0138 17.3908 21.9947C17.0823 21.9567 16.8316 21.8043 16.6001 21.5948C15.8287 20.8331 15.038 20.0524 14.2666 19.2906C14.2087 19.2335 14.2087 19.2335 14.1508 19.2906C13.3601 20.0714 12.5887 20.8331 11.798 21.6139C11.663 21.7472 11.528 21.8424 11.3544 21.9186C11.2387 21.9757 11.1037 21.9947 10.988 22.0138C10.9109 22.0138 10.8337 22.0138 10.7373 22.0138C10.6987 22.0138 10.6794 21.9947 10.6409 21.9947C10.1201 21.8995 9.773 21.6139 9.61871 21.1188C9.46443 20.6237 9.58014 20.1857 9.94657 19.8238C10.2744 19.5001 10.583 19.1954 10.9109 18.8717C11.393 18.3956 11.8751 17.9196 12.338 17.4625C12.3958 17.4054 12.3958 17.4054 12.3187 17.3863C12.2994 17.3863 12.2609 17.3673 12.2416 17.3673C11.3737 17.1578 10.583 16.8151 9.83085 16.358C9.38728 16.0724 9.17514 15.6534 9.233 15.1393C9.32943 14.1871 10.4094 13.673 11.2194 14.1871C11.3737 14.2823 11.5087 14.3585 11.6823 14.4347C12.5694 14.8727 13.5144 15.0631 14.498 15.006C14.9801 14.9869 15.4623 14.8917 15.9444 14.7394C16.4073 14.587 16.8123 14.3776 17.2366 14.149C17.9308 13.7491 18.8373 14.0729 19.1073 14.8155C19.1458 14.9298 19.1651 15.025 19.1844 15.1393C19.1844 15.1964 19.1844 15.2535 19.1844 15.3297Z"/>
</svg>
