<svg width="28" height="27" viewBox="0 0 28 27" xmlns="http://www.w3.org/2000/svg">
<path d="M19.5256 15.1665C18.4139 14.1397 18.3345 14.1397 19.2874 12.9549C20.4785 11.4541 22.0667 9.55836 20.6374 9.55836H18.0168C17.5404 9.55836 17.461 9.87431 17.3022 10.2693C16.6669 11.77 15.3963 13.7447 14.9199 13.4288C14.4434 13.1128 14.6816 11.928 14.6816 10.0323C14.7611 9.79533 14.6816 9.55836 14.5228 9.40038C14.364 9.24241 14.1258 9.08443 13.8876 9.08443C13.4905 9.00544 13.0935 8.92646 12.6964 8.92646C11.1876 8.92646 10.1553 9.55836 10.7112 9.63735C11.7435 9.79533 11.6641 12.007 11.4259 12.9549C11.0288 14.6136 9.44062 11.691 8.72594 10.1903C8.64653 9.79533 8.32889 9.55836 7.93184 9.55836H5.8672C5.54956 9.55836 5.31133 9.63735 5.31133 9.87431C5.31133 10.2693 7.29657 14.1397 9.12299 16.1144C10.9494 18.0101 12.7758 17.8521 14.0464 17.8521C14.2052 17.8521 14.364 17.7731 14.4434 17.6941C14.5228 17.6152 14.6022 17.4572 14.6022 17.2992C14.6022 16.0354 15.0787 15.4035 15.9522 16.2724C16.9051 17.2202 17.1433 17.8521 18.3345 17.8521H20.4785C21.0344 17.8521 21.1932 17.6941 21.1932 17.4572C21.2726 16.9043 20.3197 15.8774 19.5256 15.1665ZM13.8876 0.000791221C21.2726 0.158768 27.1489 6.08288 27.0695 13.2708C26.9901 20.4587 20.8756 26.1459 13.4905 26.0669C6.02602 25.9879 0.0703125 20.2218 0.0703125 13.0338C0.149722 5.76693 6.34366 -0.078197 13.8876 0.000791221Z"/>
</svg>
