<svg width="52" height="52" viewBox="0 0 52 52" fill="none" xmlns="http://www.w3.org/2000/svg">
<path d="M32.0665 13.8665C33.1949 13.8665 34.1483 14.5936 34.5071 15.5998H43.4927C43.8515 14.5936 44.8048 13.8665 45.9332 13.8665C47.3667 13.8665 48.5332 15.033 48.5332 16.4664C48.5332 17.8999 47.3667 19.0664 45.9332 19.0664C44.8048 19.0664 43.8515 18.3392 43.4927 17.3331H34.5062C34.1474 18.3392 33.1941 19.0664 32.0657 19.0664C30.6322 19.0664 29.4657 17.8999 29.4657 16.4664C29.4657 15.033 30.6331 13.8665 32.0665 13.8665ZM45.9332 17.3331C46.4107 17.3331 46.7999 16.9448 46.7999 16.4664C46.7999 15.988 46.4107 15.5998 45.9332 15.5998C45.4557 15.5998 45.0665 15.988 45.0665 16.4664C45.0665 16.9448 45.4557 17.3331 45.9332 17.3331ZM32.0665 17.3331C32.5441 17.3331 32.9332 16.9448 32.9332 16.4664C32.9332 15.988 32.5441 15.5998 32.0665 15.5998C31.589 15.5998 31.1999 15.988 31.1999 16.4664C31.1999 16.9448 31.589 17.3331 32.0665 17.3331Z" fill="#00B2FF"/>
<path d="M25.1333 19.2257V13.8664C25.1333 13.6358 25.2243 13.4157 25.3872 13.2536L28.8539 9.78704C29.0159 9.62411 29.2369 9.53311 29.4666 9.53311H32.2261C32.5849 8.52693 33.5382 7.7998 34.6666 7.7998C36.1001 7.7998 37.2666 8.96632 37.2666 10.3998C37.2666 11.8332 36.1001 12.9997 34.6666 12.9997C33.5382 12.9997 32.5849 12.2726 32.2261 11.2664H29.8254L26.8666 14.2252V19.2257C27.8728 19.5845 28.5999 20.5379 28.5999 21.6662C28.5999 23.0997 27.4334 24.2662 25.9999 24.2662C24.5665 24.2662 23.3999 23.0997 23.3999 21.6662C23.3999 20.5379 24.1271 19.5845 25.1333 19.2257ZM34.6666 11.2664C35.1441 11.2664 35.5333 10.8782 35.5333 10.3998C35.5333 9.92137 35.1441 9.53311 34.6666 9.53311C34.1891 9.53311 33.7999 9.92137 33.7999 10.3998C33.7999 10.8782 34.1891 11.2664 34.6666 11.2664ZM25.9999 22.5329C26.4775 22.5329 26.8666 22.1446 26.8666 21.6662C26.8666 21.1878 26.4775 20.7996 25.9999 20.7996C25.5224 20.7996 25.1333 21.1878 25.1333 21.6662C25.1333 22.1446 25.5224 22.5329 25.9999 22.5329Z" fill="#00B2FF"/>
<path d="M9.53333 22.533C9.93373 22.533 10.3081 22.6309 10.647 22.7938L12.1333 21.3075V12.9998C12.1333 12.7693 12.2243 12.5491 12.3873 12.3871L21.0609 3.7136C20.8979 3.37474 20.8 3.00035 20.8 2.59996C20.8 1.16651 21.9665 0 23.4 0C24.8335 0 26 1.16651 26 2.59996C26 4.0334 24.8335 5.19991 23.4 5.19991C22.9996 5.19991 22.6252 5.10198 22.2863 4.93905L13.8667 13.3586V21.6663C13.8667 21.8968 13.7757 22.117 13.6127 22.279L11.8725 24.0193C12.0354 24.3581 12.1333 24.7325 12.1333 25.1329C12.1333 26.5664 10.9668 27.7329 9.53333 27.7329C8.09986 27.7329 6.93333 26.5664 6.93333 25.1329C6.93333 23.6995 8.09986 22.533 9.53333 22.533ZM23.4 3.46661C23.8775 3.46661 24.2667 3.07835 24.2667 2.59996C24.2667 2.12156 23.8775 1.7333 23.4 1.7333C22.9225 1.7333 22.5333 2.12156 22.5333 2.59996C22.5333 3.07835 22.9225 3.46661 23.4 3.46661ZM9.53333 25.9996C10.0109 25.9996 10.4 25.6113 10.4 25.1329C10.4 24.6545 10.0109 24.2663 9.53333 24.2663C9.0558 24.2663 8.66667 24.6545 8.66667 25.1329C8.66667 25.6113 9.0558 25.9996 9.53333 25.9996Z" fill="#00B2FF"/>
<path d="M1.73353 12.2926V8.66652C1.73353 8.43599 1.82453 8.21586 1.98746 8.0538L8.05413 1.98723C8.21619 1.8243 8.43719 1.7333 8.66686 1.7333H13.1597C13.5185 0.727121 14.4718 0 15.6002 0C17.0337 0 18.2002 1.16651 18.2002 2.59996C18.2002 4.0334 17.0337 5.19991 15.6002 5.19991C14.4718 5.19991 13.5185 4.47279 13.1597 3.46661H9.02566L3.46686 9.02532V12.2926C4.47306 12.6514 5.2002 13.6047 5.2002 14.7331C5.2002 16.1665 4.03366 17.333 2.60019 17.333C1.16673 17.333 0.00019455 16.1665 0.00019455 14.7331C0.00019455 13.6047 0.727329 12.6514 1.73353 12.2926ZM15.6002 3.46661C16.0777 3.46661 16.4669 3.07835 16.4669 2.59996C16.4669 2.12156 16.0777 1.7333 15.6002 1.7333C15.1227 1.7333 14.7335 2.12156 14.7335 2.59996C14.7335 3.07835 15.1227 3.46661 15.6002 3.46661ZM2.60019 15.5997C3.07773 15.5997 3.46686 15.2115 3.46686 14.7331C3.46686 14.2547 3.07773 13.8664 2.60019 13.8664C2.12266 13.8664 1.73353 14.2547 1.73353 14.7331C1.73353 15.2115 2.12266 15.5997 2.60019 15.5997Z" fill="#00B2FF"/>
<path d="M13.866 46.9596V34.5067C12.8607 34.1479 12.1335 33.1946 12.1335 32.0662C12.1335 30.6328 13.3001 29.4663 14.7335 29.4663C15.8619 29.4663 16.8153 30.1934 17.1741 31.1996H26.1597C26.5185 30.1934 27.4718 29.4663 28.6002 29.4663C29.7286 29.4663 30.6819 30.1934 31.0407 31.1996H36.0414L39.2611 27.98C39.0981 27.6411 39.0002 27.2667 39.0002 26.8663C39.0002 25.4329 40.1667 24.2664 41.6002 24.2664C43.0337 24.2664 44.2002 25.4329 44.2002 26.8663C44.2002 28.2998 43.0337 29.4663 41.6002 29.4663C41.1998 29.4663 40.8254 29.3683 40.4865 29.2054L37.0129 32.679C36.8509 32.8419 36.6299 32.9329 36.4002 32.9329H31.0407C30.6819 33.9391 29.7286 34.6662 28.6002 34.6662C27.4718 34.6662 26.5185 33.9391 26.1597 32.9329H17.1732C16.9115 33.6669 16.3334 34.245 15.5993 34.5067V46.9596C16.6055 47.3184 17.3327 48.2718 17.3327 49.4001C17.3327 50.8336 16.1661 52.0001 14.7327 52.0001C13.2992 52.0001 12.1327 50.8336 12.1327 49.4001C12.1327 48.2718 12.8598 47.3184 13.866 46.9596ZM41.6002 27.733C42.0777 27.733 42.4669 27.3447 42.4669 26.8663C42.4669 26.3879 42.0777 25.9997 41.6002 25.9997C41.1227 25.9997 40.7335 26.3879 40.7335 26.8663C40.7335 27.3447 41.1227 27.733 41.6002 27.733ZM28.6002 32.9329C29.0777 32.9329 29.4669 32.5446 29.4669 32.0662C29.4669 31.5878 29.0777 31.1996 28.6002 31.1996C28.1227 31.1996 27.7335 31.5878 27.7335 32.0662C27.7335 32.5446 28.1227 32.9329 28.6002 32.9329ZM14.7335 50.2659C15.2111 50.2659 15.6002 49.8777 15.6002 49.3993C15.6002 48.9209 15.2111 48.5326 14.7335 48.5326C14.256 48.5326 13.8669 48.9209 13.8669 49.3993C13.8669 49.8777 14.256 50.2659 14.7335 50.2659ZM14.7335 32.9329C15.2111 32.9329 15.6002 32.5446 15.6002 32.0662C15.6002 31.5878 15.2111 31.1996 14.7335 31.1996C14.256 31.1996 13.8669 31.5878 13.8669 32.0662C13.8669 32.5446 14.256 32.9329 14.7335 32.9329Z" fill="#00B2FF"/>
<path d="M18.2002 17.4925V14.7331C18.2002 14.5026 18.2912 14.2824 18.4542 14.1204L28.8611 3.7136C28.6982 3.37474 28.6002 3.00035 28.6002 2.59996C28.6002 1.16651 29.7668 0 31.2002 0C32.3286 0 33.282 0.727121 33.6408 1.7333H37.2669C37.7453 1.7333 38.1336 2.1207 38.1336 2.59996V4.84112L41.3532 8.06073C41.6921 7.8978 42.0665 7.79987 42.4669 7.79987C43.9004 7.79987 45.0669 8.96638 45.0669 10.3998C45.0669 11.8333 43.9004 12.9998 42.4669 12.9998C41.0334 12.9998 39.8669 11.8333 39.8669 10.3998C39.8669 9.99943 39.9648 9.62504 40.1278 9.28618L36.6542 5.81264C36.4912 5.65057 36.4002 5.43044 36.4002 5.19991V3.46661H33.6408C33.282 4.47279 32.3286 5.19991 31.2002 5.19991C30.7998 5.19991 30.4254 5.10198 30.0866 4.93905L19.9336 15.0919V17.4925C20.9398 17.8513 21.6669 18.8046 21.6669 19.933C21.6669 21.3664 20.5004 22.533 19.0669 22.533C17.6334 22.533 16.4669 21.3664 16.4669 19.933C16.4669 18.8046 17.194 17.8513 18.2002 17.4925ZM42.4669 11.2665C42.9444 11.2665 43.3336 10.8782 43.3336 10.3998C43.3336 9.92143 42.9444 9.53317 42.4669 9.53317C41.9894 9.53317 41.6002 9.92143 41.6002 10.3998C41.6002 10.8782 41.9894 11.2665 42.4669 11.2665ZM31.2002 3.46661C31.6778 3.46661 32.0669 3.07835 32.0669 2.59996C32.0669 2.12156 31.6778 1.7333 31.2002 1.7333C30.7227 1.7333 30.3336 2.12156 30.3336 2.59996C30.3336 3.07835 30.7227 3.46661 31.2002 3.46661ZM19.0669 20.7997C19.5444 20.7997 19.9336 20.4114 19.9336 19.933C19.9336 19.4546 19.5444 19.0663 19.0669 19.0663C18.5894 19.0663 18.2002 19.4546 18.2002 19.933C18.2002 20.4114 18.5894 20.7997 19.0669 20.7997Z" fill="#00B2FF"/>
<path d="M20.8 24.2663C21.9284 24.2663 22.8817 24.9934 23.2405 25.9996H33.4412L38.3873 21.0536C38.5493 20.8906 38.7703 20.7997 39 20.7997H48.1745L50.2667 18.7076V11.6253L43.5803 4.93905C43.2415 5.10198 42.8671 5.19991 42.4667 5.19991C41.0332 5.19991 39.8667 4.0334 39.8667 2.59996C39.8667 1.16651 41.0332 0 42.4667 0C43.9001 0 45.0667 1.16651 45.0667 2.59996C45.0667 3.00035 44.9687 3.37474 44.8058 3.7136L51.7461 10.6538C51.909 10.8158 52 11.0359 52 11.2665V19.0663C52 19.2969 51.909 19.517 51.7461 19.6791L49.1461 22.279C48.984 22.442 48.763 22.533 48.5333 22.533H39.3588L34.4127 27.4789C34.2507 27.6419 34.0297 27.7329 33.8 27.7329H23.2405C22.8817 28.7391 21.9284 29.4662 20.8 29.4662C19.3665 29.4662 18.2 28.2997 18.2 26.8662C18.2 25.4328 19.3665 24.2663 20.8 24.2663ZM42.4667 1.7333C41.9891 1.7333 41.6 2.12156 41.6 2.59996C41.6 3.07835 41.9891 3.46661 42.4667 3.46661C42.9442 3.46661 43.3333 3.07835 43.3333 2.59996C43.3333 2.12156 42.9442 1.7333 42.4667 1.7333ZM20.8 27.7329C21.2775 27.7329 21.6667 27.3446 21.6667 26.8662C21.6667 26.3878 21.2775 25.9996 20.8 25.9996C20.3225 25.9996 19.9333 26.3878 19.9333 26.8662C19.9333 27.3446 20.3225 27.7329 20.8 27.7329Z" fill="#00B2FF"/>
<path d="M2.59997 20.7996C3.00037 20.7996 3.37477 20.8975 3.71363 21.0605L6.9333 17.8408V12.8403C5.9271 12.4815 5.19997 11.5281 5.19997 10.3998C5.19997 8.96632 6.3665 7.7998 7.79997 7.7998C9.23343 7.7998 10.4 8.96632 10.4 10.3998C10.4 11.5281 9.67283 12.4815 8.66663 12.8403V18.1996C8.66663 18.4302 8.57563 18.6503 8.4127 18.8124L4.9391 22.2859C5.10204 22.6248 5.19997 22.9992 5.19997 23.3995C5.19997 24.5279 4.47283 25.4812 3.46663 25.84V26.5074L10.146 33.1866C10.309 33.3487 10.4 33.5688 10.4 33.7994V34.8255C11.4062 35.1843 12.1333 36.1376 12.1333 37.266C12.1333 38.3944 11.4062 39.3477 10.4 39.7065V41.7596C11.4062 42.1184 12.1333 43.0717 12.1333 44.2001C12.1333 45.6335 10.9668 46.8 9.5333 46.8C8.09983 46.8 6.9333 45.6335 6.9333 44.2001C6.9333 43.0717 7.66043 42.1184 8.66663 41.7596V39.7065C7.66043 39.3477 6.9333 38.3944 6.9333 37.266C6.9333 36.1376 7.66043 35.1843 8.66663 34.8255V34.1582L1.98723 27.4789C1.8243 27.3168 1.7333 27.0967 1.7333 26.8662V25.84C0.7271 25.4812 -3.24249e-05 24.5279 -3.24249e-05 23.3995C-3.24249e-05 21.9661 1.1665 20.7996 2.59997 20.7996ZM7.79997 11.2664C8.2775 11.2664 8.66663 10.8782 8.66663 10.3998C8.66663 9.92137 8.2775 9.53311 7.79997 9.53311C7.32243 9.53311 6.9333 9.92137 6.9333 10.3998C6.9333 10.8782 7.32243 11.2664 7.79997 11.2664ZM9.5333 45.0659C10.0108 45.0659 10.4 44.6776 10.4 44.1992C10.4 43.7208 10.0108 43.3325 9.5333 43.3325C9.05577 43.3325 8.66663 43.7208 8.66663 44.1992C8.66663 44.6776 9.05577 45.0659 9.5333 45.0659ZM9.5333 38.1326C10.0108 38.1326 10.4 37.7444 10.4 37.266C10.4 36.7876 10.0108 36.3993 9.5333 36.3993C9.05577 36.3993 8.66663 36.7876 8.66663 37.266C8.66663 37.7444 9.05577 38.1326 9.5333 38.1326ZM2.59997 24.2662C3.0775 24.2662 3.46663 23.8779 3.46663 23.3995C3.46663 22.9212 3.0775 22.5329 2.59997 22.5329C2.12243 22.5329 1.7333 22.9212 1.7333 23.3995C1.7333 23.8779 2.12243 24.2662 2.59997 24.2662Z" fill="#00B2FF"/>
</svg>
