<?xml version="1.0" encoding="utf-8"?><svg viewBox="0 0 33 36" xmlns="http://www.w3.org/2000/svg" xmlns:xlink="http://www.w3.org/1999/xlink"><style>:root>svg{display:none}:root>svg:target{display:block}</style><svg viewBox="0 0 31 26" id="detective-label" xmlns="http://www.w3.org/2000/svg"><path d="M15.102 8.184a.592.592 0 00-.59.594c0 .328.264.594.59.594.326 0 .59-.266.59-.594a.592.592 0 00-.59-.594z"/><path d="M28.435 11.747h-2.296C24.93 8.27 23.174 2.17 19.993.444c-1.59-.862-3.095-.26-3.66.964-.24.52-.721.793-1.23.793-.517 0-.994-.28-1.232-.793C13.326.226 11.858-.43 10.323.32c-3.231 1.58-5.038 7.924-6.258 11.428H1.77c-.978 0-1.77.797-1.77 1.782 0 .982.794 1.782 1.77 1.782h26.665c.978 0 1.77-.798 1.77-1.782 0-.982-.794-1.782-1.77-1.782zM6.138 9.372h6.604c.326 0 .59-.266.59-.594a.592.592 0 00-.59-.594H6.55C8.328 3.24 9.99 1.802 10.84 1.387c.926-.452 1.688-.073 1.963.522a2.514 2.514 0 002.3 1.48c.975 0 1.87-.546 2.3-1.48.284-.612 1.05-.951 2.031-.42.853.464 2.51 1.948 4.221 6.695h-6.192a.592.592 0 00-.59.594c0 .328.264.594.59.594h6.605c.298.866.608 1.76.822 2.375H5.315c.214-.614.523-1.506.823-2.375zm22.297 4.75H1.77a.593.593 0 01-.59-.593c0-.328.264-.594.59-.594h26.665c.325 0 .59.266.59.594a.592.592 0 01-.59.594zM13.922 17.686H4.483a.592.592 0 00-.59.594v2.375c0 2.947 2.382 5.345 5.31 5.345a5.299 5.299 0 004.963-3.443 2.25 2.25 0 011.873 0A5.299 5.299 0 0021.002 26c2.927 0 5.309-2.398 5.309-5.345V18.28a.592.592 0 00-.59-.594h-9.439a.592.592 0 00-.59.594v.593h-1.18v-.593a.592.592 0 00-.59-.594zm-4.72 7.126c-2.276 0-4.129-1.865-4.129-4.157v-1.781h8.26v1.781c0 2.298-1.843 4.157-4.13 4.157zm7.67-5.938h8.26v1.781c0 2.292-1.853 4.157-4.13 4.157-2.293 0-4.13-1.864-4.13-4.157v-1.781zm-1.18 1.187v.594c0 .19.011.38.03.567a3.43 3.43 0 00-1.24 0c.02-.188.03-.377.03-.567v-.594h1.18z"/><path d="M9.202 22.437c-.976 0-1.77-.8-1.77-1.782a.592.592 0 00-.59-.594.592.592 0 00-.59.594c0 1.637 1.324 2.97 2.95 2.97.326 0 .59-.267.59-.594a.592.592 0 00-.59-.594zM21.002 23.625c1.627 0 2.95-1.333 2.95-2.97a.592.592 0 00-.59-.594.592.592 0 00-.59.594c0 .982-.794 1.782-1.77 1.782a.592.592 0 00-.59.594c0 .327.264.594.59.594z"/></svg><svg fill="none" viewBox="0 0 27 27" id="fb-social-icon" xmlns="http://www.w3.org/2000/svg"><path fill-rule="evenodd" clip-rule="evenodd" d="M27 13.5C27 6.045 20.956 0 13.5 0S0 6.045 0 13.5C0 20.956 6.044 27 13.5 27S27 20.956 27 13.5zM16.884 9.294h-1.74c-.469 0-.798.397-.798.891v.775h2.485l-.402 2.517h-2.083v6.747h-2.543v-6.747h-1.688V10.96h1.688V9.678h.004c.045-1.463.553-2.856 3.031-2.944v-.009h2.046v2.57z" fill="#CDCDCD"/></svg><svg viewBox="0 0 32 32" id="hired-label" xmlns="http://www.w3.org/2000/svg"><path d="M28.236 25.502c.339-.474.54-1.055.54-1.684v-3.756a.621.621 0 00-.618-.625h-2.76c-1.275 0-2.313 1.051-2.313 2.342v2.04c0 .627.2 1.208.54 1.682a3.94 3.94 0 00-1.208.407 5.243 5.243 0 00-3.878-2.34l-.019-.005a3.7 3.7 0 00.93-2.459V16a.621.621 0 00-.617-.625h-3.75c-1.612 0-2.923 1.327-2.923 2.958v2.771a3.7 3.7 0 00.93 2.459l-.019.005a5.243 5.243 0 00-3.878 2.34 3.946 3.946 0 00-1.207-.407 2.888 2.888 0 00.539-1.683v-3.756a.621.621 0 00-.617-.625h-2.76c-1.275 0-2.313 1.051-2.313 2.342v2.04c0 .628.2 1.21.54 1.683C1.462 25.818 0 27.501 0 29.523v1.852c0 .345.276.625.617.625h30.376c.341 0 .617-.28.617-.625v-1.852c0-2.022-1.463-3.705-3.374-4.02zM4.07 21.78c0-.602.484-1.091 1.078-1.091H7.29v.76c0 .374-.3.678-.668.678H4.07v-.347zm0 1.596h2.552c.235 0 .46-.043.668-.123v.566c0 .899-.722 1.63-1.61 1.63-.888 0-1.61-.731-1.61-1.63v-.443zm2.008 3.323l-.398.403-.398-.403h.796zm2.23 2.16v1.892H1.234v-1.227a2.82 2.82 0 012.338-2.787l1.67 1.69a.614.614 0 00.874 0l1.67-1.69c.296.048.58.144.844.285a5.347 5.347 0 00-.324 1.837zm7.497-5.314c-1.329 0-2.41-1.094-2.41-2.44v-.826h3.69c.41 0 .794-.105 1.13-.291v1.117c0 1.346-1.08 2.44-2.41 2.44zm1.076 1.25l-1.076 1.09-1.076-1.09h2.152zm-3.486-6.46a1.7 1.7 0 011.688-1.709h3.132v1.259c0 .631-.507 1.144-1.13 1.144h-3.69v-.695zM22.07 30.75H9.541V29.5h4.02c.341 0 .618-.28.618-.625a.621.621 0 00-.618-.625H9.587c.265-1.776 1.67-3.178 3.433-3.418l2.349 2.377a.612.612 0 00.873 0l2.349-2.377c1.96.266 3.477 1.97 3.477 4.026v1.892zm2.251-8.97c0-.603.484-1.093 1.079-1.093h2.142v.762c0 .373-.3.677-.669.677H24.32v-.347zm0 1.595h2.552c.235 0 .46-.043.669-.123v.566c0 .899-.723 1.63-1.61 1.63-.888 0-1.61-.731-1.61-1.63v-.443zm2.008 3.323l-.398.403-.398-.403h.796zm-3.025 4.052v-1.892c0-.645-.114-1.264-.323-1.837.264-.141.548-.237.843-.286l1.67 1.692a.614.614 0 00.874 0l1.67-1.691a2.82 2.82 0 012.339 2.787v1.227h-7.073zM18.848 4.084a.612.612 0 00-.873 0l-3.03 3.067-1.309-1.326a.612.612 0 00-.873 0 .63.63 0 000 .884l1.746 1.767a.614.614 0 00.873 0l3.466-3.509a.63.63 0 000-.883z"/><path d="M18.33.542a.615.615 0 00-.814.316.628.628 0 00.312.826 5.042 5.042 0 012.947 4.596c0 2.773-2.229 5.03-4.968 5.03-2.74 0-4.97-2.257-4.97-5.03a5.046 5.046 0 012.927-4.587.628.628 0 00.308-.827.614.614 0 00-.816-.312c-2.22 1.014-3.653 3.262-3.653 5.726 0 3.463 2.783 6.28 6.204 6.28 3.42 0 6.203-2.817 6.203-6.28 0-2.477-1.444-4.73-3.68-5.738z"/><path d="M15.828 0h-.023c-.34 0-.617.28-.617.625s.276.625.617.625h.02c.34 0 .615-.278.617-.622A.621.621 0 0015.828 0zM16.242 28.433a.618.618 0 00-.437-.183.618.618 0 00-.617.625.619.619 0 00.617.625.618.618 0 00.618-.625.634.634 0 00-.181-.442z"/></svg><svg fill="none" viewBox="0 0 26 19" id="mail-icon" xmlns="http://www.w3.org/2000/svg"><path d="M22.24 0H3.099C1.389 0 0 1.345 0 3v12.667c0 1.655 1.39 3 3.098 3h19.137c1.71 0 3.098-1.345 3.098-3V3.005C25.34 1.35 23.95 0 22.241 0zm1.683 15.667c0 .899-.754 1.63-1.682 1.63H3.098c-.928 0-1.683-.732-1.683-1.63V3.005c0-.899.755-1.63 1.683-1.63h19.137c.928 0 1.683.731 1.683 1.63v12.662h.005z" fill="#00B2FF"/><path d="M15.977 9.176l6.195-5.38a.673.673 0 00.053-.97.728.728 0 00-1.001-.05l-8.544 7.425-1.667-1.441c-.005-.005-.01-.01-.01-.015a1.043 1.043 0 00-.116-.097L4.104 2.771a.723.723 0 00-1 .056.67.67 0 00.057.97L9.43 9.221 3.187 14.88a.673.673 0 00-.031.969.722.722 0 001.001.036l6.337-5.74 1.72 1.486a.72.72 0 00.943-.005l1.766-1.532 6.3 5.795a.716.716 0 00.488.188.718.718 0 00.514-.213.672.672 0 00-.026-.97l-6.222-5.719z" fill="#00B2FF"/></svg><svg fill="none" viewBox="0 0 28 27" id="ok-social-icon" xmlns="http://www.w3.org/2000/svg"><path d="M14.19 11.235c1.04 0 1.85-.857 1.832-1.79.019-.933-.772-1.809-1.813-1.809-1.003 0-1.832.8-1.832 1.79s.81 1.81 1.812 1.81z" fill="#CDCDCD"/><path d="M14.035 0C6.591 0 .535 5.98.535 13.33c0 7.37 6.056 13.33 13.5 13.33 7.464 0 13.5-5.98 13.5-13.33C27.555 5.98 21.5 0 14.035 0zm.193 5.047c2.43 0 4.436 1.98 4.416 4.398 0 2.438-2.025 4.4-4.493 4.361-2.43-.038-4.378-2-4.378-4.38 0-2.418 1.986-4.38 4.455-4.38zm4.956 10.283c0 .038-.019.057-.019.095-.058.38-.25.685-.578.895a7.71 7.71 0 01-.675.38 8.764 8.764 0 01-1.833.667c-.077.02-.077.02-.019.076l1.06 1.048 1.35 1.333a1.263 1.263 0 01-.346 2.056c-.135.077-.29.096-.444.134h-.25c-.02 0-.04 0-.04-.02-.308-.037-.558-.19-.79-.4l-2.333-2.303c-.058-.058-.058-.058-.116 0l-2.353 2.323c-.135.133-.27.228-.444.305-.115.057-.25.076-.366.095h-.25c-.04 0-.059-.02-.097-.02-.52-.095-.868-.38-1.022-.875-.155-.495-.039-.933.328-1.295l.964-.952 1.427-1.41c.058-.057.058-.057-.02-.076-.019 0-.057-.019-.076-.019a8.388 8.388 0 01-2.411-1.009c-.444-.286-.656-.705-.598-1.219.096-.952 1.176-1.466 1.986-.952.155.095.29.171.463.248a5.55 5.55 0 002.816.571c.482-.02.964-.114 1.446-.267.463-.152.868-.361 1.293-.59.694-.4 1.6-.076 1.87.667.039.114.058.209.077.323v.19z" fill="#CDCDCD"/></svg><svg fill="none" viewBox="0 0 25 24" id="phone-call-icon" xmlns="http://www.w3.org/2000/svg"><path d="M19.645 14.867c-.492-.512-1.086-.785-1.715-.785-.624 0-1.222.268-1.735.78l-1.603 1.596c-.132-.071-.264-.137-.39-.203a6.451 6.451 0 01-.503-.268c-1.501-.953-2.866-2.194-4.174-3.8-.635-.8-1.06-1.473-1.37-2.157.416-.38.801-.775 1.177-1.155.142-.142.284-.289.426-.43 1.065-1.064 1.065-2.442 0-3.506L8.373 3.556c-.157-.157-.32-.319-.472-.481a23.938 23.938 0 00-.953-.942c-.492-.486-1.08-.745-1.7-.745-.619 0-1.217.259-1.724.745l-.01.01L1.788 3.88A3.704 3.704 0 00.688 6.236c-.122 1.479.314 2.857.65 3.758.821 2.214 2.049 4.265 3.88 6.464 2.222 2.649 4.895 4.74 7.949 6.215 1.167.552 2.724 1.205 4.464 1.317.106.005.218.01.32.01 1.171 0 2.155-.42 2.926-1.256.005-.01.016-.015.02-.026.264-.319.569-.607.888-.916.218-.208.442-.426.66-.654.502-.522.766-1.13.766-1.752 0-.629-.269-1.231-.781-1.738l-2.785-2.79zm1.816 5.334c-.005 0-.005.005 0 0-.198.213-.401.405-.62.618-.329.314-.664.643-.978 1.013-.512.547-1.116.805-1.907.805-.077 0-.158 0-.234-.005-1.507-.096-2.907-.684-3.957-1.185-2.87-1.388-5.392-3.358-7.487-5.855-1.73-2.082-2.886-4.007-3.652-6.074-.472-1.261-.645-2.244-.568-3.17.05-.593.279-1.085.7-1.505l1.73-1.728c.248-.233.512-.36.77-.36.32 0 .579.193.741.355l.015.016c.31.288.604.587.913.906.158.162.32.324.482.492l1.385 1.382c.538.537.538 1.034 0 1.57-.147.148-.29.295-.436.436-.426.436-.832.841-1.273 1.236-.01.01-.02.016-.026.026-.436.435-.355.86-.264 1.15l.016.045c.36.871.867 1.692 1.638 2.67l.005.005c1.4 1.722 2.877 3.064 4.505 4.092.208.132.42.239.624.34.182.091.355.177.502.268.02.01.04.026.06.036.173.086.336.126.503.126.421 0 .685-.263.771-.35l1.735-1.732c.172-.172.446-.38.766-.38.314 0 .573.198.73.37l.01.01 2.796 2.792c.522.516.522 1.048.005 1.585zM13.638 5.709a6.436 6.436 0 013.5 1.813 6.453 6.453 0 011.817 3.495.68.68 0 00.674.568c.04 0 .076-.005.117-.01a.685.685 0 00.563-.79 7.81 7.81 0 00-2.196-4.23 7.828 7.828 0 00-4.236-2.193.688.688 0 00-.792.557c-.066.37.178.73.553.79zM24.656 10.587a12.847 12.847 0 00-3.616-6.965A12.878 12.878 0 0014.065.01a.682.682 0 10-.224 1.348c2.364.4 4.52 1.52 6.235 3.226a11.47 11.47 0 013.231 6.226.68.68 0 00.675.567c.04 0 .076-.005.116-.01a.671.671 0 00.558-.78z" fill="#00B2FF"/></svg><svg viewBox="0 0 30 36" id="stopwatch-label" xmlns="http://www.w3.org/2000/svg"><path d="M3.22 11.995l-1.501-1.513a2.124 2.124 0 010-2.983 2.081 2.081 0 012.958 0l1.602 1.616a14.58 14.58 0 015.574-2.377V4.64h-1.394a.7.7 0 01-.698-.704V2.11C9.761.946 10.7 0 11.853 0h5.578c1.153 0 2.091.946 2.091 2.11v1.828a.7.7 0 01-.697.703h-1.394v2.097a14.577 14.577 0 015.574 2.377l1.602-1.616a2.081 2.081 0 012.958 0c.816.822.816 2.16 0 2.983l-1.5 1.513a14.829 14.829 0 013.219 9.24C29.284 29.375 22.715 36 14.642 36S0 29.376 0 21.234c0-3.37 1.14-6.625 3.22-9.239zm.47-3.502a.694.694 0 00-.985 0 .709.709 0 000 .994l1.44 1.453a14.87 14.87 0 011.02-.96L3.69 8.493zm14.438-6.384a.7.7 0 00-.697-.703h-5.578a.7.7 0 00-.697.703v1.125h6.972V2.11zm-4.88 2.532v1.894a14.875 14.875 0 012.788 0V4.641h-2.789zm13.331 3.852a.694.694 0 00-.986 0L24.12 9.98c.354.303.695.624 1.02.96l1.44-1.453a.708.708 0 000-.994zm-11.937 26.1c7.305 0 13.247-5.992 13.247-13.359 0-3.25-1.17-6.38-3.293-8.816a13.412 13.412 0 00-1.94-1.823 13.178 13.178 0 00-6.026-2.571 13.356 13.356 0 00-3.976 0 13.18 13.18 0 00-6.026 2.571 13.42 13.42 0 00-1.94 1.823 13.409 13.409 0 00-3.293 8.816c0 7.367 5.942 13.36 13.247 13.36z"/><path d="M14.642 23.344a2.103 2.103 0 01-2.092-2.11c0-.916.583-1.698 1.394-1.988v-5.043a.7.7 0 01.698-.703.7.7 0 01.697.703v5.043a2.112 2.112 0 011.394 1.988c0 1.164-.938 2.11-2.091 2.11zm0-2.813a.7.7 0 00-.697.703.7.7 0 00.697.703.7.7 0 00.697-.703.7.7 0 00-.697-.703z"/><path d="M7.214 13.816l.034-.038a10.479 10.479 0 014.435-2.662.704.704 0 01.395 1.349 9.065 9.065 0 00-3.33 1.832l.47.474a.708.708 0 010 .994.692.692 0 01-.985 0l-.472-.475a9.095 9.095 0 00-2.157 5.241h.671a.7.7 0 01.697.703.7.7 0 01-.697.703h-.67a9.094 9.094 0 002.156 5.241l.472-.475a.694.694 0 01.986 0 .707.707 0 010 .995l-.472.475a8.94 8.94 0 005.197 2.175v-.676a.7.7 0 01.698-.703.7.7 0 01.697.703v.676a8.94 8.94 0 005.197-2.175l-.472-.475a.707.707 0 010-.995.694.694 0 01.987 0l.471.475a9.096 9.096 0 002.157-5.24h-.67a.7.7 0 01-.698-.704.7.7 0 01.697-.703h.671a9.096 9.096 0 00-2.157-5.24l-.471.474a.691.691 0 01-.986 0 .708.708 0 010-.994l.47-.474a9.06 9.06 0 00-3.33-1.832.704.704 0 01-.471-.873.696.696 0 01.866-.475 10.475 10.475 0 014.393 2.623.693.693 0 01.042.038l.034.037a10.52 10.52 0 013.031 7.42 10.52 10.52 0 01-3.03 7.417l-.035.038-.037.034a10.343 10.343 0 01-7.356 3.057 10.341 10.341 0 01-7.356-3.056l-.038-.035-.033-.037a10.52 10.52 0 01-3.032-7.419 10.52 10.52 0 013.031-7.418z"/><path d="M14.642 12.094a.7.7 0 01-.698-.703.7.7 0 01.698-.704.7.7 0 01.697.704.7.7 0 01-.697.703z"/></svg><svg viewBox="0 0 33 32" id="tag-label" xmlns="http://www.w3.org/2000/svg"><path d="M10.794 7.849a.635.635 0 00-.444-.183.628.628 0 00-.629.625.628.628 0 001.258 0 .628.628 0 00-.184-.442z"/><path d="M32.611 2.614l-.777-.774.777-.773a.623.623 0 000-.884.631.631 0 00-.89 0l-.776.772-.765-.762a.63.63 0 00-.445-.184L19.098.004h-.002c-.84 0-1.63.325-2.224.916L11.564 6.2a.623.623 0 000 .883.631.631 0 00.889 0l5.308-5.28a1.88 1.88 0 011.335-.55h.001l10.377.007.583.58-2.332 2.319a2.59 2.59 0 00-3.144.386 2.537 2.537 0 00-.754 1.81c0 .684.268 1.327.754 1.811.502.5 1.161.749 1.82.749.66 0 1.32-.25 1.821-.749.85-.845.98-2.14.39-3.122l2.333-2.32.593.59-.006 10.307c0 .501-.197.972-.553 1.327L15.642 30.2a1.88 1.88 0 01-1.335.55 1.88 1.88 0 01-1.335-.55L2.425 19.711a1.86 1.86 0 01-.553-1.327c0-.502.197-.973.553-1.328L9.2 10.318a.623.623 0 000-.884.631.631 0 00-.889 0l-6.775 6.738a3.099 3.099 0 00-.92 2.212c0 .835.326 1.62.92 2.212l10.548 10.49c.613.61 1.418.914 2.223.914.806 0 1.61-.305 2.224-.915l15.337-15.253a3.1 3.1 0 00.921-2.21l.006-10.566a.623.623 0 00-.184-.442zm-5.278 4.668c-.249.247-.58.384-.931.384-.353 0-.683-.137-.932-.384a1.307 1.307 0 010-1.853 1.317 1.317 0 011.309-.33l-.726.722a.623.623 0 00.444 1.067c.161 0 .322-.06.445-.183l.723-.72c.13.446.02.947-.332 1.297z"/><path d="M27.463 12.585L20.14 5.3a2.501 2.501 0 00-3.52 0L5.03 16.828a2.452 2.452 0 00-.73 1.75c0 .661.26 1.283.73 1.75l7.324 7.285a2.48 2.48 0 001.76.725c.664 0 1.29-.258 1.76-.725l11.59-11.528c.47-.468.73-1.09.73-1.75 0-.661-.26-1.283-.73-1.75zm-.889 2.616l-11.59 11.528a1.227 1.227 0 01-.871.359c-.33 0-.639-.128-.871-.359l-7.325-7.285a1.214 1.214 0 01-.36-.866c0-.327.127-.635.36-.866L17.508 6.184c.24-.239.556-.358.871-.358.315 0 .63.12.87.358l7.325 7.285c.233.231.361.539.361.866 0 .327-.128.634-.36.866z"/><path d="M21.11 12.505a.623.623 0 000-.884.631.631 0 00-.89 0l-.361.36c-.966-.594-2.206-.514-2.99.265a2.261 2.261 0 00-.658 1.738c.031.643.31 1.257.784 1.73.505.502.562 1.264.126 1.698-.437.434-1.203.378-1.709-.125-.505-.503-.562-1.265-.126-1.7a.623.623 0 000-.883.631.631 0 00-.888 0c-.784.78-.864 2.012-.267 2.974l-.43.427a.623.623 0 000 .884.629.629 0 00.89 0l.429-.428c.422.26.896.391 1.362.391.6 0 1.186-.217 1.628-.656.926-.92.87-2.476-.126-3.466a1.379 1.379 0 01-.418-.907 1.03 1.03 0 01.292-.793c.436-.434 1.202-.378 1.708.125s.562 1.265.126 1.7a.623.623 0 00.445 1.066c.16 0 .321-.06.444-.183.784-.78.864-2.012.267-2.973l.362-.36zM14.75 22.868l-3.229-3.21a.631.631 0 00-.889 0 .623.623 0 000 .883l3.229 3.21a.629.629 0 00.888 0 .623.623 0 000-.883zM9.799 17.945a.634.634 0 00-.889 0 .629.629 0 00-.184.442.628.628 0 101.073-.442z"/></svg><svg fill="none" viewBox="0 0 28 27" id="vk-social-icon" xmlns="http://www.w3.org/2000/svg"><path d="M19.526 15.166c-1.112-1.026-1.192-1.026-.239-2.211 1.192-1.5 2.78-3.397 1.35-3.397h-2.62c-.477 0-.556.316-.715.711-.635 1.501-1.906 3.476-2.382 3.16-.477-.316-.238-1.501-.238-3.397a.612.612 0 00-.16-.632c-.158-.158-.396-.316-.634-.316-.397-.079-.794-.158-1.192-.158-1.508 0-2.54.632-1.985.711 1.032.158.953 2.37.715 3.318-.397 1.659-1.985-1.264-2.7-2.765-.08-.395-.397-.632-.794-.632H5.867c-.317 0-.556.08-.556.316 0 .395 1.986 4.266 3.812 6.24 1.826 1.896 3.653 1.738 4.923 1.738a.608.608 0 00.397-.158.601.601 0 00.16-.395c0-1.264.476-1.896 1.35-1.027.952.948 1.19 1.58 2.381 1.58h2.145c.555 0 .714-.158.714-.395.08-.553-.873-1.58-1.667-2.29zM13.888.002c7.385.158 13.26 6.082 13.182 13.27-.08 7.188-6.194 12.875-13.58 12.796C6.027 25.987.07 20.222.07 13.034.15 5.767 6.344-.078 13.888 0z" fill="#CDCDCD"/></svg></svg>
